:SAMPLES-PER-SECOND 30
:FULLY-SPECIFIED
:DEGREES
194
root  -73.9849 33.4902 -51.4014 1.82343 68.1404 -8.85168
RightUpLeg  -30.7289 -23.8907 6.07832
RightLeg  35.1502 3.72098 2.25987
RightFoot  3.60845 0.00711338 0.151699
RightToes  -35.5311 -0.183804 -0.288512
Spine  6.25649 -2.73572 -1.89538
Spine1  11.7858 -5.78876 -3.28369
HEad  1.35972 -2.47765 18.1683
LeftShoulder1  0 -2.42657e-020 -4.95415e-022
LeftArm  -24.1754 -0.889579 -78.1964
LeftForeArm  40.6637 -26.5834 -5.04347
LeftHand  0.202046 -8.44915 -3.10725
RightShoulder  0 2.42657e-020 1.07489e-018
RightArm  -23.6505 -14.4868 87.7306
RightForeArm  46.162 49.4474 11.9015
RightHand  -2.34481 23.7178 -10.7658
LeftUpLeg  -14.5095 16.1184 0.385088
LeftLeg  24.421 -2.14146 -0.813559
LeftFoot  -10.4751 0.0322184 0.35146
LeftToes  -12.2929 9.37529e-007 1.1992e-007
195
root  -74.3461 33.6028 -51.2682 1.99811 70.2405 -8.76183
RightUpLeg  -28.7936 -18.3176 1.69436
RightLeg  35.0647 7.26612 4.39828
RightFoot  2.77828 0.000928935 0.339157
RightToes  -41.3462 -0.229326 -0.3226
Spine  6.34207 -2.79181 -1.75314
Spine1  11.9736 -5.78363 -3.22721
HEad  0.981424 -3.44319 17.3929
LeftShoulder1  0 -2.42657e-020 -4.95415e-022
LeftArm  -22.6507 -0.884769 -80.0837
LeftForeArm  39.3406 -28.7935 -5.5448
LeftHand  0.0895 -8.53596 -1.57045
RightShoulder  0 2.42657e-020 1.07489e-018
RightArm  -20.2801 -14.4611 87.0055
RightForeArm  48.2046 53.191 13.6486
RightHand  -2.58496 23.8452 -11.8314
LeftUpLeg  -14.6769 14.4052 0.503818
LeftLeg  22.9257 -2.52958 -0.885449
LeftFoot  -8.93117 0.026824 0.343459
LeftToes  -13.0915 9.37529e-007 1.1992e-007
196
root  -74.6663 33.7226 -51.1056 2.56976 72.1879 -8.49107
RightUpLeg  -26.519 -13.6683 -2.03258
RightLeg  32.6967 3.29311 1.81322
RightFoot  2.01887 0.00477569 0.10647
RightToes  -39.3126 -0.213015 -0.311206
Spine  6.14114 -2.71133 -1.58731
Spine1  11.62 -5.47515 -3.1897
HEad  1.81055 -4.66134 16.8585
LeftShoulder1  0 -2.42657e-020 -4.95415e-022
LeftArm  -20.3375 -0.457137 -81.8026
LeftForeArm  38.1804 -30.9122 -6.04626
LeftHand  0.00419198 -8.37896 -0.427533
RightShoulder  0 2.42657e-020 1.07489e-018
RightArm  -18.3226 -14.8138 86.3262
RightForeArm  48.4771 56.6159 15.5579
RightHand  -2.59763 23.4303 -12.1126
LeftUpLeg  -14.9262 12.0118 0.559551
LeftLeg  21.3251 -2.07423 -0.662071
LeftFoot  -7.34701 0.0132811 0.206852
LeftToes  -13.2103 9.37529e-007 1.1992e-007
197
root  -74.9636 33.8201 -50.8881 2.78894 74.065 -8.80707
RightUpLeg  -24.0931 -10.7984 -4.48075
RightLeg  28.8304 -3.84689 -1.81095
RightFoot  3.05264 0.0159938 -0.222635
RightToes  -29.27 -0.138926 -0.24686
Spine  5.81271 -2.52104 -1.37615
Spine1  10.9945 -4.95516 -3.01984
HEad  2.85837 -6.11509 16.7631
LeftShoulder1  0 -2.42657e-020 -4.95415e-022
LeftArm  -18.0334 0.56948 -83.3644
LeftForeArm  38.0656 -34.8873 -7.05073
LeftHand  -0.0220545 -8.46191 -0.071885
RightShoulder  0 2.42657e-020 1.07489e-018
RightArm  -17.4855 -15.5911 85.748
RightForeArm  48.3828 59.8008 17.6967
RightHand  -2.5094 23.2603 -11.7816
LeftUpLeg  -15.6451 10.3189 0.867944
LeftLeg  20.3305 -2.18225 -0.654798
LeftFoot  -6.03105 0.00901844 0.171185
LeftToes  -13.5964 9.37529e-007 1.1992e-007
198
root  -75.241 33.8519 -50.6079 3.4942 75.342 -8.6423
RightUpLeg  -21.7122 -9.15433 -6.13694
RightLeg  24.313 -8.99202 -3.36887
RightFoot  6.66203 0.0864387 -1.10738
RightToes  -30.1878 -0.145217 -0.253269
Spine  5.59395 -2.1873 -1.27028
Spine1  10.5516 -4.19409 -2.931
HEad  3.18932 -7.45955 17.306
LeftShoulder1  0 -2.42657e-020 -4.95415e-022
LeftArm  -15.5572 1.57951 -84.3757
LeftForeArm  38.2898 -39.0665 -8.22138
LeftHand  -0.0777064 -8.89901 0.629121
RightShoulder  0 2.42657e-020 1.07489e-018
RightArm  -17.2131 -16.176 85.4271
RightForeArm  48.969 62.7777 20.1333
RightHand  -2.48852 23.005 -11.8177
LeftUpLeg  -16.5967 9.48158 1.19695
LeftLeg  20.0465 -2.6094 -0.768299
LeftFoot  -5.16946 0.00917038 0.178399
LeftToes  -14.3908 9.37529e-007 1.1992e-007
199
root  -75.4402 33.7898 -50.2936 5.38531 76.3531 -6.7704
RightUpLeg  -19.4897 -10.8447 -7.13945
RightLeg  20.3602 -4.54569 -1.36095
RightFoot  8.04729 0.0713183 -0.636255
RightToes  -39.2987 -0.212905 -0.311126
Spine  5.61682 -1.91136 -1.33236
Spine1  10.5737 -3.59519 -3.09009
HEad  3.48678 -8.27215 17.3201
LeftShoulder1  0 -2.42657e-020 -4.95415e-022
LeftArm  -13.1579 2.6438 -84.7163
LeftForeArm  38.7778 -43.4728 -9.62248
LeftHand  -0.154234 -8.94795 1.60226
RightShoulder  0 2.42657e-020 1.07489e-018
RightArm  -16.8281 -16.0817 85.4152
RightForeArm  50.5404 65.0331 22.3659
RightHand  -2.55498 22.7471 -12.2853
LeftUpLeg  -17.4052 8.74341 1.25851
LeftLeg  20.7485 -2.8063 -0.863595
LeftFoot  -4.88355 0.012761 0.182719
LeftToes  -15.0676 9.37529e-007 1.1992e-007
200
root  -75.638 33.6667 -49.957 8.49261 76.8097 -3.50723
RightUpLeg  -18.5146 -14.2475 -7.61766
RightLeg  18.7265 -0.146514 -0.0401277
RightFoot  7.30876 0.0269366 0.0274358
RightToes  -44.0364 -0.251504 -0.33677
Spine  5.70612 -1.54613 -1.49517
Spine1  10.711 -2.81825 -3.42378
HEad  4.05288 -9.17851 17.0811
LeftShoulder1  0 -2.42657e-020 -4.95415e-022
LeftArm  -11.4038 3.55865 -84.7076
LeftForeArm  39.5386 -47.1425 -10.9614
LeftHand  -0.213841 -9.05758 2.3311
RightShoulder  0 2.42657e-020 1.07489e-018
RightArm  -15.6058 -15.5523 85.0604
RightForeArm  51.7789 66.7989 24.4287
RightHand  -2.63043 22.4039 -12.8591
LeftUpLeg  -18.1575 8.80237 1.11074
LeftLeg  21.8422 -3.35498 -1.10232
LeftFoot  -5.00448 0.0133233 0.240006
LeftToes  -16.8641 9.37529e-007 1.1992e-007
201
root  -75.8576 33.5849 -49.5544 8.37299 76.9799 -3.48134
RightUpLeg  -17.9215 -16.4953 -6.79343
RightLeg  17.6639 2.1182 0.526934
RightFoot  5.95762 0.00481126 0.285057
RightToes  -43.2689 -0.245109 -0.332833
Spine  5.89098 -1.12364 -1.41685
Spine1  11.0184 -1.94674 -3.28739
HEad  5.20861 -9.61277 16.3905
LeftShoulder1  0 -2.42657e-020 -4.95415e-022
LeftArm  -10.1368 3.98034 -84.8009
LeftForeArm  40.1141 -49.3495 -11.8627
LeftHand  -0.281507 -9.12827 3.15774
RightShoulder  0 2.42657e-020 1.07489e-018
RightArm  -14.6563 -14.2711 84.8227
RightForeArm  51.9347 67.2949 25.0698
RightHand  -2.69395 22.1538 -13.3312
LeftUpLeg  -19.0243 9.06983 1.85164
LeftLeg  23.338 -3.73339 -1.33513
LeftFoot  -5.09478 0.0124772 0.280442
LeftToes  -18.2729 9.37529e-007 1.1992e-007
202
root  -76.1186 33.5709 -49.1392 6.66821 76.5473 -5.38638
RightUpLeg  -17.9883 -15.0042 -5.35579
RightLeg  16.7757 0.498417 0.115905
RightFoot  5.42666 0.0145128 0.107589
RightToes  -40.9031 -0.225737 -0.320167
Spine  5.90542 -0.75542 -1.14452
Spine1  11.0157 -1.20349 -2.78795
HEad  7.46865 -9.5125 15.3706
LeftShoulder1  0 -2.42657e-020 -4.95415e-022
LeftArm  -10.032 4.75102 -85.2062
LeftForeArm  40.9271 -50.6486 -12.4332
LeftHand  -0.348568 -9.16062 3.98196
RightShoulder  0 2.42657e-020 1.07489e-018
RightArm  -13.5036 -12.5244 84.6271
RightForeArm  51.1186 66.5324 24.0975
RightHand  -2.72324 22.2878 -13.3941
LeftUpLeg  -19.9162 9.30211 3.00599
LeftLeg  24.3689 -3.47322 -1.31343
LeftFoot  -4.9781 0.0108878 0.250461
LeftToes  -19.222 9.37529e-007 1.1992e-007
203
root  -76.2959 33.6346 -48.774 6.56482 75.6238 -5.56967
RightUpLeg  -18.1588 -13.2314 -4.72131
RightLeg  16.3369 -0.228504 -0.051142
RightFoot  5.58928 0.0176018 0.0394999
RightToes  -40.2413 -0.220413 -0.316481
Spine  5.94537 -0.508993 -1.00003
Spine1  11.0799 -0.687336 -2.55853
HEad  10.645 -8.75308 14.2183
LeftShoulder1  0 -2.42657e-020 -4.95415e-022
LeftArm  -11.0105 6.01243 -85.587
LeftForeArm  40.7269 -52.0169 -13.0723
LeftHand  -0.358643 -9.01054 4.18252
RightShoulder  0 2.42657e-020 1.07489e-018
RightArm  -11.9847 -10.7198 84.539
RightForeArm  50.2957 65.4767 22.8561
RightHand  -2.60306 22.5522 -12.635
LeftUpLeg  -19.3656 9.46642 3.68531
LeftLeg  23.2484 -2.77552 -0.988796
LeftFoot  -4.3519 0.00588133 0.15478
LeftToes  -18.6412 9.37529e-007 1.1992e-007
